Coordinates
version=1
nRows=17
nColumns=40
inDegrees=yes

Units are S.I. units (second, meters, Newtons, ...)
If the header above contains a line with 'inDegrees', this indicates whether rotational values are in degrees (yes) or radians (no).

endheader
time	pelvis_tilt	pelvis_list	pelvis_rotation	pelvis_tx	pelvis_ty	pelvis_tz	hip_flexion_r	hip_adduction_r	hip_rotation_r	knee_angle_r	knee_angle_r_beta	ankle_angle_r	subtalar_angle_r	mtp_angle_r	hip_flexion_l	hip_adduction_l	hip_rotation_l	knee_angle_l	knee_angle_l_beta	ankle_angle_l	subtalar_angle_l	mtp_angle_l	lumbar_extension	lumbar_bending	lumbar_rotation	arm_flex_r	arm_add_r	arm_rot_r	elbow_flex_r	pro_sup_r	wrist_flex_r	wrist_dev_r	arm_flex_l	arm_add_l	arm_rot_l	elbow_flex_l	pro_sup_l	wrist_flex_l	wrist_dev_l
      0.35000000	      2.15799154	    -12.34599906	     89.89567740	      0.25395644	      0.92155109	      1.22363020	     19.56610581	      6.55354161	      2.66869808	      8.49006567	      0.14817960	      4.19002061	      0.00000000	      0.00000000	     28.55967868	     -3.34304168	      0.72183889	     60.85149011	      1.06205886	     -2.98899302	      0.00000000	      0.00000000	      7.01576784	      1.00308015	      7.48801167	      0.00000000	      0.00000000	      0.00000000	      0.00000000	      0.00000000	      0.00000000	      0.00000000	      0.00000000	      0.00000000	      0.00000000	      0.00000000	      0.00000000	      0.00000000	      0.00000000
      0.36000000	      1.71423609	    -12.59013152	     89.89884055	      0.25484629	      0.92304365	      1.20472188	     17.64183286	      6.15562084	      3.19372524	      6.89401723	      0.12032330	      4.48694894	      0.00000000	     -0.00000000	     30.85917257	     -2.76392125	      0.48533977	     59.34889150	      1.03583356	     -1.13219255	     -0.00000000	     -0.00000000	      7.08310361	      0.35757633	      7.57547726	     -0.00000000	      0.00000000	     -0.00000000	      0.00000000	      0.00000000	      0.00000000	     -0.00000000	      0.00000000	      0.00000000	      0.00000000	      0.00000000	      0.00000000	     -0.00000000	      0.00000000
      0.37000000	      1.28461072	    -12.94316904	     89.90331216	      0.25569587	      0.92371463	      1.18588740	     15.98360427	      5.74862718	      3.35212520	      5.52439392	      0.09641886	      4.91926337	      0.00000000	      0.00000000	     33.11089106	     -2.22865879	      0.16689833	     57.35520163	      1.00103711	      0.17480658	      0.00000000	      0.00000000	      7.26290496	     -0.26696194	      7.63250163	      0.00000000	      0.00000000	      0.00000000	      0.00000000	      0.00000000	      0.00000000	      0.00000000	      0.00000000	      0.00000000	      0.00000000	      0.00000000	      0.00000000	      0.00000000	      0.00000000
      0.38000000	      0.89868033	    -12.84809093	     89.90275277	      0.25663519	      0.92437446	      1.16655718	     13.74003050	      5.42408939	      4.05728079	      4.03096670	      0.07035364	      5.16798666	      0.00000000	     -0.00000000	     34.58496338	     -1.79728580	     -0.25535408	     54.77657625	      0.95603161	      1.79256269	     -0.00000000	      0.00000000	      6.97377706	     -0.86312422	      7.64423858	      0.00000000	      0.00000000	     -0.00000000	      0.00000000	      0.00000000	      0.00000000	      0.00000000	     -0.00000000	      0.00000000	     -0.00000000	      0.00000000	      0.00000000	     -0.00000000	     -0.00000000
      0.39000000	      0.60029721	    -12.95424292	     89.90194138	      0.25749883	      0.92397565	      1.14737152	     11.89637319	      5.18775545	      4.34468464	      2.84138922	      0.04959160	      5.64234603	     -0.00000000	      0.00000000	     36.15334446	     -1.46031591	     -0.71113839	     51.86154965	      0.90515480	      2.85920657	      0.00000000	      0.00000000	      6.89707478	     -1.32503484	      7.66653791	      0.00000000	     -0.00000000	     -0.00000000	      0.00000000	      0.00000000	      0.00000000	      0.00000000	     -0.00000000	     -0.00000000	      0.00000000	      0.00000000	      0.00000000	      0.00000000	      0.00000000
      0.40000000	      0.40307552	    -12.97882568	     89.89951455	      0.25839986	      0.92294962	      1.12804686	     10.02441064	      5.07450108	      4.58585381	      1.77973406	      0.03106222	      6.19425205	      0.00000000	      0.00000000	     37.44980506	     -1.24295286	     -1.19236897	     48.56604474	      0.84763739	      3.64332543	      0.00000000	      0.00000000	      6.74834164	     -1.67245205	      7.67399846	      0.00000000	      0.00000000	      0.00000000	      0.00000000	      0.00000000	      0.00000000	      0.00000000	      0.00000000	      0.00000000	      0.00000000	      0.00000000	      0.00000000	      0.00000000	      0.00000000
      0.41000000	      0.33531201	    -12.91828282	     89.89545707	      0.25929304	      0.92127823	      1.10856678	      8.09937248	      5.11317131	      4.75338679	      0.81186133	      0.01416965	      6.81484011	      0.00000000	     -0.00000000	     38.50059152	     -1.16705226	     -1.72075729	     44.96454092	      0.78477929	      4.15039874	      0.00000000	      0.00000000	      6.51237853	     -1.85422870	      7.66396669	     -0.00000000	      0.00000000	      0.00000000	      0.00000000	      0.00000000	     -0.00000000	      0.00000000	      0.00000000	      0.00000000	      0.00000000	      0.00000000	      0.00000000	      0.00000000	     -0.00000000
      0.42000000	      0.41770849	    -12.79957730	     89.89031239	      0.26018783	      0.91894955	      1.08889346	      6.11808927	      5.31867204	      4.83287502	     -0.10527596	     -0.00183741	      7.50215922	      0.00000000	      0.00000000	     39.36546111	     -1.23337634	     -2.25490020	     41.13822844	      0.71799753	      4.42132818	      0.00000000	      0.00000000	      6.23812080	     -1.84508213	      7.65939204	      0.00000000	      0.00000000	      0.00000000	      0.00000000	      0.00000000	      0.00000000	      0.00000000	      0.00000000	      0.00000000	      0.00000000	      0.00000000	      0.00000000	      0.00000000	      0.00000000
      0.43000000	      0.60188622	    -12.50052899	     89.88279700	      0.26107135	      0.91622035	      1.06898897	      3.93760858	      5.63133114	      4.98883622	     -0.98616223	     -0.01721178	      8.20302563	      0.00000000	      0.00000000	     39.89880683	     -1.39600862	     -2.87927071	     37.06090757	      0.64683486	      4.47280390	      0.00000000	      0.00000000	      5.77380735	     -1.70074208	      7.65125940	      0.00000000	      0.00000000	      0.00000000	      0.00000000	      0.00000000	      0.00000000	      0.00000000	      0.00000000	      0.00000000	      0.00000000	      0.00000000	      0.00000000	      0.00000000	      0.00000000
      0.44000000	      0.88796530	    -11.98031781	     89.87157443	      0.26188316	      0.91320696	      1.04884528	      1.46707347	      6.03152803	      5.21152081	     -1.91409802	     -0.03340731	      8.78911618	      0.00000000	      0.00000000	     40.10057325	     -1.64555702	     -3.58333487	     32.83480842	      0.57307552	      4.36515172	      0.00000000	      0.00000000	      5.05324375	     -1.43891914	      7.64250817	      0.00000000	      0.00000000	      0.00000000	      0.00000000	      0.00000000	      0.00000000	      0.00000000	      0.00000000	      0.00000000	      0.00000000	      0.00000000	      0.00000000	      0.00000000	      0.00000000
      0.45000000	      1.20850578	    -11.64884500	     89.85633599	      0.26259218	      0.90942513	      1.02870844	     -0.73718359	      6.43985858	      5.42830949	     -2.69271527	     -0.04699675	      9.47804689	      0.00000000	      0.00000000	     40.42931670	     -1.86774209	     -4.28864916	     28.48095400	      0.49708642	      4.17735462	      0.00000000	      0.00000000	      4.56294425	     -1.12151232	      7.60952951	      0.00000000	      0.00000000	      0.00000000	      0.00000000	      0.00000000	      0.00000000	      0.00000000	      0.00000000	      0.00000000	      0.00000000	      0.00000000	      0.00000000	      0.00000000	      0.00000000
      0.46000000	      1.56065520	    -11.29604512	     89.83465384	      0.26309282	      0.90529605	      1.00845219	     -2.96185250	      6.82857156	      5.73402855	     -3.42234846	     -0.05973125	     10.05278818	      0.00000000	      0.00000000	     40.65397008	     -2.04471301	     -4.88866169	     24.04577466	      0.41967794	      3.98670583	      0.00000000	      0.00000000	      4.07527189	     -0.73435849	      7.56786629	      0.00000000	      0.00000000	      0.00000000	      0.00000000	      0.00000000	      0.00000000	      0.00000000	      0.00000000	      0.00000000	      0.00000000	      0.00000000	      0.00000000	      0.00000000	      0.00000000
      0.47000000	      1.93046292	    -10.97119645	     89.80426705	      0.26343249	      0.90086208	      0.98806624	     -5.13915021	      7.18720248	      6.09718356	     -4.08225765	     -0.07124884	     10.54724055	      0.00000000	      0.00000000	     40.81171121	     -2.16457605	     -5.27666184	     19.57302892	      0.34161380	      3.82200689	      0.00000000	      0.00000000	      3.62534853	     -0.31119742	      7.50516368	      0.00000000	      0.00000000	      0.00000000	      0.00000000	      0.00000000	      0.00000000	      0.00000000	      0.00000000	      0.00000000	      0.00000000	      0.00000000	      0.00000000	      0.00000000	      0.00000000
      0.48000000	      2.30606328	    -10.68221783	     89.75776173	      0.26359828	      0.89621529	      0.96753779	     -7.24311809	      7.50003363	      6.51965638	     -4.64324467	     -0.08103991	     10.91696117	      0.00000000	      0.00000000	     40.89922090	     -2.21312292	     -5.22372018	     15.14279785	      0.26429168	      3.77362994	      0.00000000	      0.00000000	      3.23173144	      0.14127560	      7.41848153	      0.00000000	      0.00000000	      0.00000000	      0.00000000	      0.00000000	      0.00000000	      0.00000000	      0.00000000	      0.00000000	      0.00000000	      0.00000000	      0.00000000	      0.00000000	      0.00000000
      0.49000000	      2.73649193	    -10.62494585	     89.68753260	      0.26369121	      0.89119255	      0.94695041	     -8.98630688	      7.83311227	      6.95727796	     -4.96780469	     -0.08670455	     11.26327932	      0.00000000	      0.00000000	     41.13129706	     -2.27421755	     -4.45103934	     10.88505619	      0.18998007	      3.93133513	      0.00000000	      0.00000000	      3.12512271	      0.67347399	      7.33114436	      0.00000000	      0.00000000	      0.00000000	      0.00000000	      0.00000000	      0.00000000	      0.00000000	      0.00000000	      0.00000000	      0.00000000	      0.00000000	      0.00000000	      0.00000000	      0.00000000
      0.50000000	      3.00422661	    -10.23986269	     89.54935155	      0.26365668	      0.88669623	      0.92578764	    -11.13028944	      7.93887410	      7.45048819	     -5.32927092	     -0.09301332	     11.39495205	      0.00000000	      0.00000000	     40.81644102	     -2.24880043	     -3.38782821	      6.86774864	      0.11986483	      4.11059654	      0.00000000	      0.00000000	      2.68313648	      1.03354591	      7.25176275	      0.00000000	      0.00000000	      0.00000000	      0.00000000	      0.00000000	      0.00000000	      0.00000000	      0.00000000	      0.00000000	      0.00000000	      0.00000000	      0.00000000	      0.00000000	      0.00000000
      0.51000000	      3.30684086	    -10.07851440	     89.29845559	      0.26380663	      0.88208258	      0.90448186	    -12.85676368	      8.05491372	      7.97625758	     -5.33760655	     -0.09315881	     11.48489383	      0.00000000	      0.00000000	     40.67189062	     -2.39602499	     -1.82237600	      3.43624024	      0.05997371	      4.54725729	      0.00000000	      0.00000000	      2.52313448	      1.44313377	      7.24830686	      0.00000000	      0.00000000	      0.00000000	      0.00000000	      0.00000000	      0.00000000	      0.00000000	      0.00000000	      0.00000000	      0.00000000	      0.00000000	      0.00000000	      0.00000000	      0.00000000
